<svg xmlns="http://www.w3.org/2000/svg" width="1293.753" height="737.999" viewBox="0 0 1293.753 737.999">
  <path id="Path_1916" data-name="Path 1916" d="M1028.906,717.021l86.629,9.649-3.5,11.23h15.751l37.773-122.861,8.751,122.861h15.605L1187,696.474l39.669-.666,4.084,42.091h7.73l-4.084-42.174,59.357-.915v-8.817l-48.857.749-3.792-14.89,52.649.915v-4.409l-53.816-.915-7.292-28.864,31.793-19.964,29.168,10.564v-5.324l-23.918-8.651,23.918-15.056v-6.571l-62.566,39.429c-3.354-10.9-11.667-38.68-15.167-50.409l77.879,7.57v-8.984l-38.794-3.826,9.188-33.024c10.355,1.248,20.272,2.412,29.606,3.494v-9.067l-22.168-2.579,22.168-16.054V505.736l-39.086,28.449-50.606-5.989,21.584-86.344,67.962,6.987V433.866l-7.146-.749,7.146-27.866V344.527l-7.875,30.778-72.337-9.982c3.646-10.9,13.271-39.761,16.917-50.742l63.295,6.821v-8.984l-40.835-4.409L1285,207.941l8.6.915V193.8l-21.147-2.246,5.688-22.543,15.459-1.83v-4.492l-14.292,1.664,12.542-49.743,1.75.166V3.643l-4.667,18.383-48.419,1.664L1238.333-.017h-7.73l2.333,24.04-41.127,1.414-1.9-25.454h-15.605l1.9,26.036-57.023,2,8.6-28.033h-15.751l-8.313,27.2-86.046-13.06L1022.2-.017H995.946L987.2,27.1l-59.211,5.74L920.692-.017h-15.6l7.438,34.271-57.9,5.573L829.834,10.963c14.73-2.412,39.523-6.571,66.357-10.98H840.626L822.979,2.895,820.354-.017H791.478l5.979,6.987c-9.042,1.414-21.147,3.327-33.106,5.241-1.9-2.995-4.521-7.4-7.584-12.311H748.6l8.313,13.476c-14.438,2.246-27.272,4.326-32.377,5.157L687.2,11.878l2.479-11.9h-7.875l-2.042,10.564-47.69-8.4,1.313-2.163h-16.48l-6.271,9.732L569.8-.017H555.507l-12.688,18.55L484.337,6.971q3.719-3.494,7-6.987H473.253a222.3,222.3,0,0,1-28.439,24.04l-7-24.04H422.063l1.9,6.655L385.02,19.864,364.456-.017h-9.042l48.273,46.666c-1.167.416-2.333.915-3.354,1.331-15.459,5.74-35.585,9.982-58.628,13.143l7.73-61.139H341.7L333.829,62.2c-8.459,1.081-17.209,1.913-26.251,2.745L299.119-.017h-15.6l2.771,21.96-93.192-6.488L192.51-.017H176.9l.583,14.474-21.439-1.5L133.007-.017H121.923l21.584,12.062L65.045,6.638,66.5-.017H58.628L57.315,6.056,26.105,3.893l1.021-3.91H.875L0,3.643V114.776l67.087,6.987,11.521,31.61L0,162.689v4.492l23.48-2.828,7.584,32.774L0,193.8v15.056l34.127,3.66L8.167,313.084,0,312.252v8.984l5.834.665L0,344.527v60.724l21.147-81.686,73.066,7.819-19.4,110.134L0,433.866v14.973l68.691,6.987L0,505.736v14.308l68.108-49.577L49.44,544.582,0,538.759v9.067c19.98,2.329,36.752,4.326,47.252,5.573l-7.875,31.609L0,581.183v8.984l4.667.5L0,593.494v6.572l13.709-8.651,23.48,2.329L27.126,633.671,0,623.856V629.1l25.96,9.4-7.584,30.112L0,668.275v4.409l17.209.333L14,685.661,0,685.91v8.817l11.813-.166L.875,737.816H26.981l10.646-42.59,29.606,2.246-8.75,40.344h7.875L72.337,710.2l49.586,27.617h11.084L73.65,704.626l1.458-6.571,100.484,7.653,1.313,32.109h15.6L191.2,706.872l89.255,6.821,3.063,24.123h15.6l-1.6-12.394,46.377-4.492L341.7,737.9h7.73l.583-5.074,5.25,5.074h9.042l-13.271-12.893.583-4.825,63.441-6.155,7,23.873h15.751l-21.876-74.865,110.547,4.825c-12.1,21.128-29.9,47.081-53.232,70.04h18.084a310.67,310.67,0,0,0,25.522-29.946l51.336,11.23L555.361,737.9h14.292l-5.1-1.248,25.814-37.682,47.253,6.322-20.709,32.525h16.48l39.377-61.722,21.439-1.5-12.4,63.3h7.875l4.959-25.288,35.148-5.49L748.746,737.9h8.167c-7.292-11.729-16.334-26.452-19.689-31.942l23.626-3.66,30.627,35.6h28.876l-13.126-15.306,102.964-18.217L904.5,727.335l-63.878,10.481h55.565c2.917-.5,5.688-.915,8.6-1.414l.292,1.414h15.6l-.875-3.91c31.648-5.241,62.857-10.4,81.525-13.559l-5.688,17.468h26.251Zm-14-38.264-81.087-6.322,8.167-32.691,82.837,8.069ZM841.5,621.028l5.542-17.968,86.192,9.233-4.375,17.219Zm85.171,17.219-3.5,13.975-57.024-4.658,5.688-14.557ZM638.928,620.778l-38.21-.582,5.834-18.8,32.377,8.9a20.417,20.417,0,0,0-.729,5.157A13.256,13.256,0,0,0,638.928,620.778Zm11.813,14.973a48.178,48.178,0,0,0,6.855,3.993l-29.168,21.877-27.564-26.7Zm-2.042-39.1-73.65-20.213,80.067-16.72,12.1,27.534A58.492,58.492,0,0,0,648.7,596.655Zm-510.88-46.832,9.48-12.145,117.839-16.054-16.772,33.523Zm106.755,14.058L236.7,586.922l-28.731-4.159,2.042-20.546ZM80.5,75.763c26.105,1.081,56.586,2.08,88.379,2.329l-.292,4.409L76.712,98.721ZM48.711,65.282l8.75-28.033L141.9,43.322c-.875,5.241-3.208,18.383-4.375,25.288C103.693,67.861,72.775,66.613,48.711,65.282Zm200.239,59.06,10.063,50.991c-23.043,1.5-92.317,6.072-116.964,7.736l10.792-53.487Zm-80.8-37.1-2.479,32.774L146.132,121.1l-18.084-1.913L122.8,95.228Zm91.588,92.5,3.646,18.383-126.3,8.817,3.938-19.382Zm532.027-3.577-14.292,28.865-58.92,12.977a340.021,340.021,0,0,1-19.251-35.353ZM710.828,148.3l45.211-3.161,4.958,18.3-46.523,3.244Zm224.74,187.744-54.69-7.32L908.15,280.06l46.961,4.991C951.756,294.035,943.444,315.746,935.568,336.043ZM962.84,285.8l57.753,6.156-75.546,40.26ZM447,295.948l89.4-4.825,9.771,22.127-107.047,1.83Zm0-38.514,81.817,16.3,3.792,8.651-78.9,4.242Zm406.75,71.2-14.584,26.036-63.732-14.391L792.5,315.912Zm-58.482-16.8L810,290.708c21.876,7.154,43.169,13.476,55.419,16.969l-9.334,16.72Zm-41.71,35.852-29.9-14.474L759.684,304.1l18.814,7.819Zm-3.063,4.326-1.458,2.08-75.254,3.66-37.773-28.7,37.481-14.391ZM666.2,359.5l-63.587,20.879L588.03,347.522l41.564-15.888C636.449,336.874,658.617,353.677,666.2,359.5Zm-35-33.939c-3.208-2.329-9.334-6.738-13.709-9.9l31.356-12.893,18.376,8.9Zm-6.417,2.5-38.794,14.89-5.4-12.062,30.627-12.561ZM582.925,396.1l-68.4-11.562,51.336-26.868Zm-77.15-13.06-88.234-14.973,19.834-48.579,110.839-1.83,15.6,35.186Zm-95.963-94-12.1-58.478,34.564-2.911,13.709,59.393Zm-.729,8.9,29.751-1.58-14.292,35.02-29.46-5.407Zm13.709,37.765L410.1,366.82l-32.522-5.49L393.041,330.3ZM414.333,376.8l-42,65.215-31.21-7.4,32.231-64.8Zm7.438,1.248,40.4,6.821-17.355,29.613c-11.521-2-32.96-5.823-41.71-7.4Zm35.293,43.421c7.875,1.581,21.584,4.326,37.773,7.57L469.315,462.4l-34.71-2.329Zm2.333-4.242,17.5-29.863,59.941,10.148L522.4,429.79Zm84.879-18.384,42.877,7.32,17.793,40.177-75.254-15.056Zm60.232-13.975,33.106-10.9,16.188,32.94-42.294-6.156Zm40.106-13.226,28.585-9.4,72.775-3.577L706.89,414.484l-44.19-6.405Zm96.255,18.217,34.856,6.655-12.542,26.369L722.057,416.9Zm2.771-4.159,28.876-41.259,64.17,14.474L814.083,399.1Zm95.817,16.637,65.045,6.655L849.959,460.9l-33.543-17.385ZM847.48,388.2l31.064-55.317,55.419,7.486c-5.542,14.557-10.646,27.7-12.98,34.022l-48.419,16.387Zm93.192-44.586,23.189,16.138-33.689,11.4Zm-70.441-44.42c-25.814-7.486-84.442-25.121-111.422-38.347-1.313-.665-2.625-1.331-3.792-2.08l62.42-30.528,70,40.344Zm-94.067-62.387-20.418-22.293,24.063-5.324,26.4,12.81Zm-6.125,2.995-24.356,11.978c-9.042-7.9-17.355-18.633-24.5-29.53l27.272-5.989Zm-21.293,27.783c11.959,5.906,29.46,12.477,47.69,18.633L781.56,307.594l-71.9-29.7,33.252-13.642C744.808,265.5,746.85,266.585,748.746,267.583Zm4.667,33.855L717.682,330.3l-62.274-30.112,47.544-19.548Zm-94.8-13.476-13.855-26.286,34.418-9.4,14.438,21.378Zm-16.188-30.611-11.084-20.962L655.7,217.507l20.709,30.528Zm2.917,36.018-68.691,28.2L551.861,265.42l74.525-8.152Zm-95.526-32.192-29.168-66.131L590.8,190.14l33.252,62.8Zm-23.334,7.4-80.65-16.054L440,226.99l65.628-5.573ZM396.833,226.158l-4.667-22.127,102.526-7.154,9.042,20.3Zm-9.188-36.684-7.875-19.132L489.3,173.253l4.084,8.817Zm5.542,94.579-73.65-48.246-3.063-26.452,60.232-4.242Zm-79.629-89.422-5.25-18.966c20.855-1.83,44.336-3.91,55.857-4.908l8.167,19.8Zm-4.813,15.223,2.917,24.872-32.668,1.83,1.167-24.622Zm5.4,29.114,77.879,50.991-115.8,6.239,2.479-55.317C289.2,240.382,308.016,239.3,314.141,238.968Zm78.316,59.892L328.579,427.045,297.223,416.98l66.649-116.622ZM336.746,443.182l79.921,19.049-8.9,15.223-78.025-20.38Zm42.586.582,20.855-32.441,42,7.4-20.564,35.1Zm52.5,20.463,35.293,2.412L459.107,496.5l-37.481-14.64Zm43.46,1.081,26.835-34.854c21.147,4.242,45.357,9.067,66.212,13.226l-23.48,68.293-29.752,6.488-49-19.215Zm118.131,45.5,13.126,26.868-55.273,13.143-25.23-25.288Zm-39.96-.749L575.779,445.1c12.688,2.5,23.772,4.741,31.647,6.322l18.959,42.756Zm62.42-99.57,86.338,12.561-22.314,16.8-47.69,7.736ZM710.536,424.3l81.525,11.9L701.2,462.564l-14.438-20.38Zm60.086-.416,12.4-26.036,28.731,5.49-13.855,24.539Zm43.169,24.289,72.92,37.682-5.4,5.906c-36.9-4.076-69.274-7.57-86.629-9.483Zm42,15.722,56.878-54.069,39.377,4.076-61.837,67.877ZM960.215,414.65l12.542,1.331-24.5,83.1c-19.689-2.163-39.815-4.409-59.066-6.488Zm4.375,55.982,63.878,8.734-7.73,27.7c-19.251-2.08-41.564-4.575-64.753-7.071Zm9.626,40.344,43.315,4.741L998.28,561.468l-35.731-4.159Zm51.044,5.573,40.544,4.409-15.022,46.5-44.773-5.157Zm3.063-8.651,7.73-27.866,42.294,1.913-9.771,30.362C1059.1,511.226,1045.094,509.729,1028.323,507.9Zm8.9-32.275,5.25-18.633,42.877,3.41L1079.8,477.62Zm6.417-23.042,7.875-28.532,43.9,4.492-8.9,27.45Zm-14,22.376L965.9,466.307l14.584-49.494,63.586,6.488ZM895.9,393.106l77.879-26.369L1031.385,407Zm84.588-28.7L1081.7,330.053l22.605,15.722-101.359,34.188Zm-9.917-6.9-26.689-18.633,85.317-45.335,42.586,29.7Zm61.69-96.575-60.67-4.575c1.9-6.572,3.646-12.644,4.521-15.8l59.941,6.9Zm-1.167,4.409-5.1,18.217-60.232-6.488c1.167-3.993,2.917-10.148,4.667-16.387Zm-73.066,10.98-45.065-4.825,20.126-35.852,35.439,4.076ZM892.837,259.1,829.25,222.415l49.732-24.373L920.255,210.1Zm-80.65-40.011-27.272-13.226,15.021-30.279,92.755-6.488a27.539,27.539,0,0,0,5.688,7.819Zm-35.731-56.731-12.251-45,52.648-4.658,12.4,46Zm-42.877,94.829-33.4,13.725-38.939-57.563,26.689-20.629C696.827,210.519,713.307,239.633,733.579,257.185ZM628.573,231.149l-22.168-42.007,77.3-5.407c.438,1.081,1.021,2.246,1.6,3.494ZM616.323,173.5l-24.939,1.747L548.944,136.4l67.524-5.989Zm-33.4,2.329-64.753,4.492,25.668-40.261Zm-77.15-1.913-34.71-76.445,74.087,14.89ZM487.4,168.761l-60.232-1.58-16.043-51.657,50.9-2.745Zm-68.253-1.83-41.127-1.081-19.4-47.5,44.627-2.412Zm-56.732-.5-55.419,4.825-5.25-18.966,53.232-4.076Zm-56.586,28.781-26.981,1.913-3.646-18.55c5.979-.5,15.167-1.331,25.376-2.246ZM275.785,305.182l79.629-4.326L314.87,371.728,273.16,362Zm36.752,70.789-22.605,39.6-18.959-1.747,2.188-47Zm-25.085,43.837-18.23,31.942,1.458-33.523C276.222,418.726,283.077,419.392,287.452,419.808Zm7.292,1.5,31.648,10.148-33.543,67.378-25.522-6.987,1.167-24.539ZM327.7,461.4l77.587,20.3-24.21,41.342-73.941-20.3ZM419,486.188l87.359,34.188-75.254,16.387-36.023-9.9Zm9.771,66.3,68.983,18.966-17.938,19.132-61.253-7.57Zm21.584-10.4,68.4-14.89,25.376,25.371-29.9,7.07ZM608.739,542,618.8,562.633,565.424,573.78l-41.856-11.562Zm-8.021-32.774,29.314-6.405,23.189,52.488-27.272,5.656Zm33.543-57.313,45.794-7.4,43.9,61.8-60.816,10.814Zm69.858,14.723L790.311,441.6l-45.94,81.769Zm85.754,24.123,73.8,8.069-14.147,45.5-84.3-9.732Zm72.191,64.051,83.129,9.566-6.417,25.87-80.358-23.707Zm2.625-8.734L878.836,500.5l80.212,8.817-11.667,46.333Zm95.817,20.047,87.5,10.065-8.6,26.785-85.754-9.649Zm97.422,60.557,37.481,2.745-11.667,34.022-36.9-2.662Zm1.458-4.325,17.209-53.4,38.356,3.743L1097.014,625.1Zm19.98-62.138,11.667-36.351c12.1,1.414,32.085,3.826,55.711,6.571l-13.855,34.937Zm14.584-45,14.438-44.919L1201,477.7l-12.251,48.745Zm11.522-100.651-62.42-6.405-35.293-24.622,101.359-34.188,15.021,10.481Zm33.106-50.575,64.316,8.9c-3.646,10.315-12.834,37.016-17.355,49.91l-64.753-6.655Zm-10.5-15.472-76.129-53.154,91,9.732Zm-86.921-63.3,15.313-54.4,108.651,8.984-19.4,56.648Zm58.336-59.809,8.9-36.351,71.462,7.653-11.813,34.355Zm5.25-51.823-29.314-3.161,9.334-30.112,29.606,1.83Zm-3.938,14.64c-2.479,10.148-6.855,28.2-8.9,36.517L1059.1,222l10.5-37.183Zm-40.69-19.382-56-5.989c0-.665.146-1.248.146-1.913a21.85,21.85,0,0,0-4.667-12.893l52.794-18.134,14.438,17.718Zm-5.98,14.391-16.772,59.809L935.568,231.4l21.73-38.68c16.772-1.664,31.064-7.57,39.231-15.638Zm-106.609-4.825c-16.918,0-30.772-7.819-30.772-17.552,0-9.649,13.709-17.552,30.772-17.552,16.917,0,30.772,7.819,30.772,17.552S964.445,178.411,947.527,178.411ZM930.61,191.72l-8.021,14.141-37.335-10.9L907.858,183.9A74.571,74.571,0,0,0,930.61,191.72Zm-38.356-37.432-55.128,3.826-12.542-46.083,58.92-5.241,25.959,30.279C900.858,141.561,894.733,147.55,892.253,154.288ZM751.517,109.535,747.58,91.9,860.168,79.756l16.043,18.716Zm-2.625,9.233,5.979,22.043-44.919,3.078-4.229-21.295Zm-42,48.5L624.2,173l.146-43.255,73.8-6.571ZM626.823,120.6l26.543-54.235,32.668,7.071-18.813,43.588Zm-8.459.749-66.358,5.906,46.523-72.7,47.544,10.232ZM547.778,108.2l-38.064-7.653,13.417-27.367,40.835,9.649Zm-45.357-9.15-33.689-6.821L452.4,56.3l63.587,15.139Zm-44.481,4.991-106.172,5.823L346.955,90.32l99.463-11.313ZM353.08,143.89l-52.648,3.993-7.292-25.953,49.878-2.745Zm-59.066,8.984,5.4,19.049-24.939,2.163L270.68,154.62Zm-24.355-2.579-5.25-26.785,21-1.165,7.292,26.119Zm-5.25,62.637L263.242,237.3c-12.4.665-37.189,1.913-47.252,2.412l1.6-23.541ZM200.239,357.5l-1.313,19.964c-8.75-.166-29.606-.582-38.356-.832l1.6-20.713Zm-35.148-10.231,38.356-35.353-2.479,36.767Zm33.543,34.6-1.6,23.707c-12.688-1.414-25.814-2.911-38.356-4.326l1.6-20.213Zm-2.188,28.2-6.417,29.7-40.544-5.989,8.167-28.033Zm-2.188,46.333,22.605,3.244L214.532,477.2l-23.48-6.405ZM195.281,452l8.9-41.092,18.959,2.163-5.542,42.174Zm35.293-38.1,24.647,2.745-3.208,70.872-29.9-8.235Zm-25.814-7.4,1.6-24.373c10.063.333,37.043,1.248,50.315,1.664l-1.313,28.365C245.158,410.99,226.053,408.828,204.76,406.5Zm1.9-28.781,1.313-19.881,49.732,2-.875,19.465Zm2.042-28.7,2.917-43.338,48.711-2-2.188,47.331Zm3.208-47.83,1.167-17.385,48.127.749-.729,14.64Zm1.75-26.286,2.042-30.778,47.252-2.412-1.458,33.939ZM139.57,221.666l70.441-4.908-1.6,23.208-72.045-.416Zm68.545,22.626-2.042,30.445-75.691-1.081,5.25-29.7Zm-2.771,39.346-1.313,19.215-24.793,22.792-51.482-37.183,1.021-6.072Zm-30.335,46.083-18.668,17.136-38.5-1.581,8.9-50.492Zm-20.564,25.953-3.5,44.752c-16.917-1.913-32.085-3.577-42-4.741l7.292-41.591Zm-49.732-84.1-31.21-2.5,15.459-50.658,24.647,2.662Zm3.354,128.6,42,4.741-14.876,50.575-35.148-9.649Zm40.252,37.931,40.835,6.072-5.25,24.622L142.632,457.49Zm39.231,48.08,83.713,23.042-3.792,7.57L151.237,532.6Zm90.859,24.955,41.127,11.313-18.084,35.27L256.1,555.562Zm55.274,15.222,35.439,9.732-25.96,61.8-44.627-2.662Zm61.545,79.107-3.792,11.313-103.255-1.664,8.021-15.555Zm-44.336-7.154,25.376-60.308,38.064,10.481-17.647,52.572Zm66.212-10.9L527.068,600.98l-3.938,17.967-115.943-1.913Zm70.587,4.159,17.063-18.134,38.21,10.481L529.4,596.738Zm47.4,8.4,15.022-14.058,49,13.476L592.7,620.029l-61.836-1Zm159.55-2.08c16.918,0,30.772,7.819,30.772,17.552,0,9.649-13.709,17.552-30.772,17.552-16.918,0-30.773-7.819-30.773-17.552C664.013,605.8,677.722,597.9,694.639,597.9ZM710.1,584.427a92.891,92.891,0,0,0-15.459-1.248h-2.333l-27.418-61.8,61.836-10.98,13.855,19.548Zm50.315-41.342,86.338,9.982-1.313,4.326L740.579,596.655A51.706,51.706,0,0,0,733,591.747Zm83.129,20.3L826.188,619.53l-75.254-7.32a22.894,22.894,0,0,0-6.271-11.729Zm20.709,68.792L858.418,646.9l-69.129-5.656,13.272-14.973Zm-15.9-33.523,8.6-27.533,80.65,23.79-3.209,13.06Zm179.238,40.427-83.421-8.152,8.313-33.273,85.317,9.566Zm39.669,73.118-35.585-3.993,13.855-43.089,36.752,2.662Zm50.9,5.74-35.731-3.993,22.605-66.3,33.4,4.242Zm21.73-70.456-33.252-4.159,23.626-69.125,31.21,3.078Zm96.984,39.262-50.607.832-1.312-19.049,40.981-25.787C1228.416,652.8,1234.4,676.677,1236.875,686.742Zm-12.4-49.66-39.96,25.121-5.979-83.349,29.168,2.828Zm24.355-94.5-9.334,33.273-98.88-9.649,13.709-34.854C1183.643,534.85,1217.478,538.843,1248.834,542.586Zm-46.815-69.292-92.317-7.32,11.229-34.77,89.4,9.15Zm30.481-45.751-39.377-3.993,8.021-23.208,38.648,4.409Zm38.648,3.993-31.064-3.161,7.438-22.792,29.46,3.411Zm12.251-47.5-5.25,20.546-75.4-8.651,7.584-22.044Zm-77.587-19.881-64.316-8.9,16.626-48.579,64.607,6.9Zm39.377-57.064-84.15-8.984,14-41.092,83.129,9.566Zm42.731-280.576-8.9,35.519-34.71-.333L1241.1,28.182Zm-44.044,44.087,32.814.333-17.647,70.123-26.543-.083Zm-11.959,74.782,26.106.083-10.938,43.422-21.876-2.329Zm-14.438,40.344-14.584-1.58-8.167-114.044,41.273.416Zm15.751-157.3,3.209,33.19-42.294-.416-2.188-31.277Zm-38.064,169.86,82.254,8.817-17.793,55.067L1176.5,252.61Zm-7.875-15.8-74.816-7.986c2.917-9.649,7.875-26.119,9.625-31.859l62.712,3.826Zm-2.917-40.593L1085.93,135.9l7.292-23.957,88.817-.5Zm-66.5-109.386,58.628-2.08,2.333,32.94-70.441-.333Zm-10.792,34.937,72.045.333,2.771,39.346-87.213.5Zm-90.859-48.912,86.046,13.06L1092.93,61.7l-86.192-14.474Zm75.546,47.581-20.418,66.214L1005.863,51.64Zm-91,.333,48.273,59.393-53.086,18.217a52.343,52.343,0,0,0-16.917-10.065ZM985.592,31.759l-31.356,97.158c-1.9-.083-3.646-.166-5.542-.25l-19.834-91.5Zm-72.045,6.9,19.834,91a5.64,5.64,0,0,1-1.167.166L858.273,43.987ZM804.6,15.122,856.668,75.68l-51.336,5.573L769.6,20.7ZM762.018,21.86C769.455,34.338,791.623,72.1,797.6,82l-51.044,5.49L733,26.435Zm-25.96,89.089-60.67,5.407L693.181,75.1,729.787,83Zm-7.292-32.94-72.92-15.8,17.209-21.461,49.732,10.315Zm-44.627-57.4,33.252,5.906,4.375,19.548-45.94-9.483ZM626.677,10.464,676.7,19.282l-9.334,17.8L648.7,60.54,601.155,50.226Zm-64.9-7.57,46.232,10.98L598.093,29.43l-47.982-9.483ZM545.153,28.349l47.544,9.4L566.591,78.674l-41.273-9.816ZM475.878,14.707,537.86,26.934,518.026,67.2,449.773,51.058l-5.834-12.81A232.258,232.258,0,0,0,475.878,14.707ZM388.957,23.69,425.417,11.3l6.271,21.461A196.657,196.657,0,0,1,410.1,44.07Zm19.834,31.776a190.8,190.8,0,0,0,22.46-9.982l13.271,29.28-98.588,11.23-3.792-15.638C368.248,66.779,391.145,61.955,408.791,55.466ZM334.559,71.188l9.625,39.1L240.929,115.94l-5.1-38.181C270.243,76.761,304.224,74.765,334.559,71.188ZM287.6,31.01,292.119,66.2c-30.772,2.163-64.024,2.995-96.692,3.078l-1.9-44.752ZM227.949,77.842l5.25,38.431-59.649,3.244,3.063-41.342C193.531,78.258,210.74,78.175,227.949,77.842ZM154.008,21.694l23.918,1.664.729,18.134-28.293-2C151.237,35.5,152.987,26.934,154.008,21.694Zm24.939,24.289,1.021,23.208c-11.667-.083-23.335-.166-34.564-.416l4.229-24.955ZM23.918,12.627l122.506,8.485-3.646,17.8L19.543,30.1ZM18.376,34.5,49.732,36.75l-8.75,28.116c-12.4-.665-22.459-1.331-29.752-1.83ZM66.358,112.7l-65.92-6.9,8.6-33.939c13.272.915,35.731,2.329,63.732,3.577Zm9.334-9.233,39.523-6.987,4.813,21.794-46.086-4.825Zm-.438,19.215,61.982,6.488-15.751,77.776L105.151,205.2ZM31.21,163.521,80.067,157.7l16.918,46.5-57.9-6.239ZM23.335,314.748l25.96-100.568,32.085,3.41L50.753,317.659Zm35.148,3.743,13.855-45.085,31.793,2.579-8.167,46.5ZM96.547,461.15l77,21.129-52.065,66.713-46.377-2.246ZM72.92,555.562,194.7,561.468l-2.042,20.546L64.9,587.754Zm119.152,30.944L189.3,613.541l-31.793-.5V588.087Zm-128.34,5.74,86.046-3.91v24.456L58.92,611.378Zm45.94,99.57L39.96,686.492l10.5-41.758,65.92,5.157Zm-58.045-51.49L55.274,626.1l64.9,1.081-2.917,18.383Zm89.4,53.9L117.4,692.4l6.709-41.841,24.355,1.913Zm8.167-46.167-24.5-1.913,3.063-18.8,25.085.416Zm34.71,49.411-27.418-2.08,7.438-42.091,25.23.832Zm-19.251-48.579,3.792-20.962L269.659,629.6l2.917,22.792Zm26.98,49.161,5.4-43.671,76.129,2.5,6.125,47.913Zm80.5-83.183-67.233-1.081,2.625-26.452,73.212,10.647ZM244.283,588l8.167-23.79,44.627,2.163-14,27.284Zm40.981,41.841,105.88,1.747,4.521,15.555-107.485,5.24Zm3.354,26.868,108.214-5.241,6.563,22.543-111.714,6.9Zm8.313,64.3-4.084-31.194,113.026-6.987,7.875,26.785ZM414.625,658.46l-7.729-26.7L543.694,634c-2.917,6.738-7.875,17.052-14.73,29.447Zm156.487,56.481-51.19-11.147c3.209-4.409,6.271-8.734,9.042-13.06l53.815,7.237ZM534.36,682.416a351.074,351.074,0,0,0,25.231-48.163l32.085.5,31.5,30.611L590.509,689.9Zm108.651,14.557-44.336-5.906,30.335-22.792,28,6.572Zm16.772-26.286-25.814-6.072,29.606-22.21a73.459,73.459,0,0,0,12.1,3.41Zm16.042.832,15.167-23.79c1.167.083,2.333.083,3.646.083a95.871,95.871,0,0,0,17.938-1.664l18.376,21.295Zm19.689,36.351,6.563-33.856,32.377-2.412,22.9,26.619Zm63-41.841L734.6,638.246c8.021-4.575,13.709-10.481,15.751-17.136l44.336,4.326Zm45.211,52.488L790.165,702.8l45.211-7.4,7.292,16.138Zm107.631-19.049-61.253,10.814-7.292-16.054,72.774-11.9Zm6.709-26.7L783.31,694.727,762.893,671.02l22.751-25.62,136.507,11.23Zm2.625,51.823,10.792-43.338,37.918,2.995-8.9,33.772Zm83.858-13.975-35.731,5.906,8.459-31.859,34.856,2.745Z" transform="translate(0 0.1)" opacity="0.05"/>
</svg>
